<svg id="Layer_1" data-name="Layer 1" xmlns="http://www.w3.org/2000/svg" viewBox="0 0 122.88 119.49"><defs><style>.cls-1{fill-rule:evenodd;}</style></defs><title>library</title><path class="cls-1" d="M5.48,43.81,61.3,0l56.1,43.81ZM43.12,89.86l.12-20.45H41.17V95.19a37.37,37.37,0,0,1,9.32-1.12,27,27,0,0,1,8.89,1.4,19.14,19.14,0,0,0-6.09-3.31,22.29,22.29,0,0,0-8.81-.94,1.25,1.25,0,0,1-1.36-1.14.81.81,0,0,1,0-.22Zm33.41-25.8a17.13,17.13,0,0,0-8,1,11.76,11.76,0,0,0-5.92,4.63V92.84a29.4,29.4,0,0,1,6.55-3.39,16.74,16.74,0,0,1,7.41-1.13V64.06Zm3,2.83h3.41a1.26,1.26,0,0,1,1.25,1.26V97.07a1.25,1.25,0,0,1-1.25,1.26,1.1,1.1,0,0,1-.41-.07,39,39,0,0,0-10.43-1.69A24.15,24.15,0,0,0,62,98.63a1.38,1.38,0,0,1-1.43,0,24.19,24.19,0,0,0-10.09-2.06,39,39,0,0,0-10.42,1.69,1.14,1.14,0,0,1-.41.07,1.26,1.26,0,0,1-1.25-1.25V68.15a1.27,1.27,0,0,1,1.26-1.26h3.58l0-4.19a1.25,1.25,0,0,1,1-1.22h0a19.9,19.9,0,0,1,10.84.83,13.93,13.93,0,0,1,6.25,4.56,14.54,14.54,0,0,1,6.25-4.36,21.91,21.91,0,0,1,10.83-1,1.26,1.26,0,0,1,1.08,1.24h0v4.19ZM63.79,95.28a26.87,26.87,0,0,1,8.32-1.21,37,37,0,0,1,9.32,1.12V69.41H79.52V90a1.25,1.25,0,0,1-1.25,1.26,1.36,1.36,0,0,1-.29,0,16,16,0,0,0-8,.85,27.88,27.88,0,0,0-6.17,3.23Zm-3.73-2.69V69.69a11.07,11.07,0,0,0-5.84-4.8,15.52,15.52,0,0,0-8-.89l-.14,24.4a21.84,21.84,0,0,1,8,1.14,21.51,21.51,0,0,1,6,3ZM61.44,21a5.68,5.68,0,1,1-5.68,5.68A5.68,5.68,0,0,1,61.44,21Zm0-6.05A11.73,11.73,0,1,1,49.71,26.69,11.73,11.73,0,0,1,61.44,15ZM6.63,103.73h6v-1a3.79,3.79,0,0,1,3.78-3.78V58.19H8.89V49.93h104.8v8.26h-7.48V98.9h0a3.79,3.79,0,0,1,3.78,3.78v1h6.24a2.42,2.42,0,0,1,2.4,2.41v5.53h1.82a2.42,2.42,0,0,1,2.41,2.4v3a2.44,2.44,0,0,1-2.41,2.41H2.41A2.43,2.43,0,0,1,0,117.08v-3a2.41,2.41,0,0,1,2.41-2.4H4.23v-5.53a2.42,2.42,0,0,1,2.41-2.41Zm27.24,0H88.74v-1c0-.15,0-.3,0-.45v0h0a3.79,3.79,0,0,1,3.66-3.28V58.19H30.18V98.9a3.78,3.78,0,0,1,3.69,3.78v1Z"/></svg>